<svg width="472" height="311" viewBox="0 0 472 311" fill="none" xmlns="http://www.w3.org/2000/svg">
<g clip-path="url(#clip0_2_83)">
<path d="M176.062 136.906C176.062 139.688 175.719 142.172 175.031 144.359C174.344 146.547 173.406 148.484 172.219 150.172C171.062 151.828 169.719 153.25 168.188 154.438C166.656 155.625 165.047 156.594 163.359 157.344C161.703 158.094 160.016 158.641 158.297 158.984C156.609 159.328 155.016 159.5 153.516 159.5H125.953V147.312H153.516C155.078 147.188 156.484 146.875 157.734 146.375C159.016 145.844 160.109 145.141 161.016 144.266C161.922 143.391 162.625 142.344 163.125 141.125C163.625 139.875 163.875 138.469 163.875 136.906V131.375C163.719 129.844 163.391 128.438 162.891 127.156C162.391 125.875 161.703 124.781 160.828 123.875C159.984 122.969 158.953 122.266 157.734 121.766C156.516 121.234 155.109 120.969 153.516 120.969H126.047C124.422 120.969 123.188 121.391 122.344 122.234C121.5 123.078 121.078 124.297 121.078 125.891V176H108.891V125.891C108.891 122.766 109.453 120.109 110.578 117.922C111.734 115.734 113.156 113.969 114.844 112.625C116.562 111.281 118.422 110.312 120.422 109.719C122.422 109.094 124.266 108.781 125.953 108.781H153.516C156.266 108.781 158.734 109.141 160.922 109.859C163.109 110.547 165.031 111.484 166.688 112.672C168.375 113.828 169.797 115.172 170.953 116.703C172.141 118.234 173.109 119.844 173.859 121.531C174.641 123.188 175.203 124.875 175.547 126.594C175.891 128.281 176.062 129.875 176.062 131.375V136.906ZM257.062 148.812C257.062 152.906 256.359 156.672 254.953 160.109C253.547 163.547 251.594 166.516 249.094 169.016C246.594 171.516 243.625 173.469 240.188 174.875C236.781 176.25 233.062 176.938 229.031 176.938H212.531C208.5 176.938 204.766 176.25 201.328 174.875C197.891 173.469 194.922 171.516 192.422 169.016C189.922 166.516 187.953 163.547 186.516 160.109C185.109 156.672 184.406 152.906 184.406 148.812V135.969C184.406 131.906 185.109 128.156 186.516 124.719C187.953 121.25 189.922 118.281 192.422 115.812C194.922 113.312 197.891 111.359 201.328 109.953C204.766 108.547 208.5 107.844 212.531 107.844H229.031C233.062 107.844 236.781 108.547 240.188 109.953C243.625 111.359 246.594 113.312 249.094 115.812C251.594 118.281 253.547 121.25 254.953 124.719C256.359 128.156 257.062 131.906 257.062 135.969V148.812ZM244.875 135.969C244.875 133.562 244.484 131.391 243.703 129.453C242.953 127.484 241.875 125.812 240.469 124.438C239.094 123.031 237.422 121.953 235.453 121.203C233.516 120.422 231.375 120.031 229.031 120.031H212.531C210.156 120.031 207.984 120.422 206.016 121.203C204.078 121.953 202.406 123.031 201 124.438C199.594 125.812 198.5 127.484 197.719 129.453C196.969 131.391 196.594 133.562 196.594 135.969V148.812C196.594 151.219 196.969 153.406 197.719 155.375C198.5 157.312 199.594 158.984 201 160.391C202.406 161.766 204.078 162.844 206.016 163.625C207.984 164.375 210.156 164.75 212.531 164.75H228.938C231.312 164.75 233.469 164.375 235.406 163.625C237.375 162.844 239.062 161.766 240.469 160.391C241.875 158.984 242.953 157.312 243.703 155.375C244.484 153.406 244.875 151.219 244.875 148.812V135.969ZM336.281 131.375C336.281 134.156 335.938 136.641 335.25 138.828C334.562 141.016 333.625 142.953 332.438 144.641C331.281 146.297 329.938 147.719 328.406 148.906C326.875 150.094 325.266 151.078 323.578 151.859C321.922 152.609 320.234 153.156 318.516 153.5C316.828 153.844 315.234 154.016 313.734 154.016L339.188 176H320.344L294.938 154.016H286.172V141.828H313.734C315.266 141.703 316.656 141.391 317.906 140.891C319.188 140.359 320.281 139.656 321.188 138.781C322.125 137.906 322.844 136.859 323.344 135.641C323.844 134.391 324.094 132.969 324.094 131.375V123.688C324.094 123 324 122.484 323.812 122.141C323.656 121.766 323.438 121.5 323.156 121.344C322.906 121.156 322.625 121.047 322.312 121.016C322.031 120.984 321.766 120.969 321.516 120.969H281.297V176H269.109V114.922C269.109 114.078 269.266 113.281 269.578 112.531C269.891 111.781 270.312 111.125 270.844 110.562C271.406 110 272.062 109.562 272.812 109.25C273.562 108.938 274.375 108.781 275.25 108.781H321.516C324.234 108.781 326.531 109.281 328.406 110.281C330.281 111.25 331.797 112.484 332.953 113.984C334.141 115.453 334.984 117.047 335.484 118.766C336.016 120.484 336.281 122.094 336.281 123.594V131.375ZM408.703 120.969H381.844V176H369.656V120.969H342.75V108.781H408.703V120.969ZM113.968 240.512C112.859 240.512 112.048 239.979 111.536 238.912C111.024 237.845 110.768 235.947 110.768 233.216C110.768 229.376 111.003 225.323 111.472 221.056C111.984 216.747 112.645 212.096 113.456 207.104C114.181 203.136 115.909 200.085 118.64 197.952C121.413 195.819 125.125 194.069 129.776 192.704C132.677 191.851 135.685 191.061 138.8 190.336C141.915 189.611 144.837 189.035 147.568 188.608C150.341 188.139 152.624 187.904 154.416 187.904C155.781 187.904 156.848 188.117 157.616 188.544C158.384 188.971 158.917 189.504 159.216 190.144C159.557 190.741 159.728 191.296 159.728 191.808C159.728 192.619 159.536 193.344 159.152 193.984C158.768 194.624 157.936 195.115 156.656 195.456C156.101 195.627 154.928 195.925 153.136 196.352C151.387 196.736 149.232 197.205 146.672 197.76C144.155 198.315 141.488 198.912 138.672 199.552C135.856 200.149 133.125 200.768 130.48 201.408C127.877 202.176 125.957 203.115 124.72 204.224C123.525 205.291 122.736 206.848 122.352 208.896C122.267 209.323 122.181 209.92 122.096 210.688C123.845 210.133 125.723 209.685 127.728 209.344C129.733 209.003 131.589 208.747 133.296 208.576C135.003 208.405 136.261 208.32 137.072 208.32C137.925 208.32 138.821 208.469 139.76 208.768C140.741 209.024 141.573 209.429 142.256 209.984C142.981 210.496 143.344 211.157 143.344 211.968C143.344 212.736 143.045 213.44 142.448 214.08C141.851 214.677 140.635 215.253 138.8 215.808C138.416 215.936 137.541 216.107 136.176 216.32C134.853 216.533 133.275 216.811 131.44 217.152C129.648 217.451 127.813 217.792 125.936 218.176C124.101 218.56 122.48 218.965 121.072 219.392C120.773 221.696 120.496 224 120.24 226.304C119.984 228.608 119.771 230.613 119.6 232.32C119.429 233.984 119.301 235.029 119.216 235.456C118.96 237.035 118.341 238.272 117.36 239.168C116.379 240.064 115.248 240.512 113.968 240.512ZM193.912 241.536C190.669 241.536 187.789 240.704 185.272 239.04C182.754 237.376 180.77 235.072 179.32 232.128C177.912 229.141 177.208 225.728 177.208 221.888C177.208 219.029 177.784 216.256 178.936 213.568C180.088 210.837 181.368 208.448 182.776 206.4C182.605 205.76 182.52 204.971 182.52 204.032C182.52 202.88 182.989 201.557 183.928 200.064C184.866 198.571 186.168 197.12 187.832 195.712C189.538 194.304 191.522 193.131 193.784 192.192C196.088 191.253 198.584 190.784 201.272 190.784C205.453 190.784 208.973 191.637 211.832 193.344C214.69 195.051 216.845 197.291 218.296 200.064C219.789 202.837 220.536 205.845 220.536 209.088C220.536 213.781 219.768 218.112 218.232 222.08C216.696 226.048 214.648 229.483 212.088 232.384C209.528 235.285 206.669 237.547 203.512 239.168C200.354 240.747 197.154 241.536 193.912 241.536ZM194.68 201.408C194.722 201.536 194.744 201.664 194.744 201.792C194.744 202.219 194.658 202.688 194.488 203.2C194.317 203.669 193.976 204.139 193.464 204.608C192.61 205.461 191.757 206.656 190.904 208.192C190.05 209.685 189.261 211.349 188.536 213.184C187.853 215.019 187.298 216.896 186.872 218.816C186.445 220.736 186.232 222.571 186.232 224.32C186.232 226.709 186.786 228.693 187.896 230.272C189.048 231.851 190.84 232.64 193.272 232.64C195.32 232.64 197.261 232.171 199.096 231.232C200.93 230.251 202.616 228.949 204.152 227.328C205.688 225.664 207.01 223.829 208.12 221.824C209.229 219.776 210.082 217.707 210.68 215.616C211.32 213.483 211.64 211.456 211.64 209.536C211.64 207.744 211.256 206.08 210.488 204.544C209.762 203.008 208.696 201.771 207.288 200.832C205.88 199.851 204.13 199.36 202.04 199.36C200.504 199.36 199.117 199.552 197.88 199.936C196.685 200.32 195.618 200.811 194.68 201.408ZM262.824 243.328C261.245 243.328 259.603 242.944 257.896 242.176C256.189 241.451 254.739 240.213 253.544 238.464C252.392 236.715 251.816 234.389 251.816 231.488C251.816 228.416 252.072 225.237 252.584 221.952C253.139 218.624 253.843 215.36 254.696 212.16C255.592 208.917 256.552 205.867 257.576 203.008C258.643 200.149 259.688 197.611 260.712 195.392C261.779 193.173 262.76 191.445 263.656 190.208C264.595 188.928 265.341 188.288 265.896 188.288C267.048 188.288 268.072 188.715 268.968 189.568C269.907 190.421 270.376 191.723 270.376 193.472C270.376 193.899 270.12 194.944 269.608 196.608C269.139 198.229 268.52 200.256 267.752 202.688C267.027 205.12 266.216 207.765 265.32 210.624C264.467 213.44 263.656 216.299 262.888 219.2C262.163 222.101 261.544 224.832 261.032 227.392C260.563 229.952 260.328 232.149 260.328 233.984C260.328 234.496 260.627 234.752 261.224 234.752C262.077 234.752 263.336 234.539 265 234.112C266.707 233.685 268.563 233.152 270.568 232.512C272.616 231.829 274.579 231.168 276.456 230.528C278.333 229.888 279.933 229.355 281.256 228.928C282.579 228.501 283.325 228.288 283.496 228.288C284.563 228.288 285.416 228.587 286.056 229.184C286.696 229.781 287.016 230.635 287.016 231.744C287.016 232.512 286.504 233.408 285.48 234.432C284.456 235.413 283.091 236.437 281.384 237.504C279.677 238.528 277.757 239.467 275.624 240.32C273.533 241.216 271.379 241.941 269.16 242.496C266.941 243.051 264.829 243.328 262.824 243.328ZM323.776 205.824C321.728 205.824 320.278 205.611 319.424 205.184C318.571 204.757 318.059 204.245 317.888 203.648C317.718 203.051 317.632 202.539 317.632 202.112C317.632 202.069 317.632 202.048 317.632 202.048C317.632 201.109 318.059 200.213 318.912 199.36C319.766 198.464 320.96 197.845 322.496 197.504C323.776 197.248 325.291 196.992 327.04 196.736C328.832 196.437 330.71 196.181 332.672 195.968C334.678 195.712 336.598 195.52 338.432 195.392C340.267 195.264 341.888 195.2 343.296 195.2C345.174 195.2 346.624 195.477 347.648 196.032C348.672 196.544 349.376 197.141 349.76 197.824C350.187 198.507 350.4 199.083 350.4 199.552C350.4 199.979 350.294 200.405 350.08 200.832C349.867 201.259 349.334 201.685 348.48 202.112C347.67 202.539 346.368 202.944 344.576 203.328C342.784 203.712 340.31 204.075 337.152 204.416C336.854 204.459 336.534 204.501 336.192 204.544C335.894 206.379 335.531 208.576 335.104 211.136C334.678 213.653 334.208 216.299 333.696 219.072C333.227 221.803 332.758 224.427 332.288 226.944C331.862 229.419 331.478 231.531 331.136 233.28C332.886 233.109 334.422 232.981 335.744 232.896C337.11 232.811 338.027 232.768 338.496 232.768C339.99 232.768 341.014 233.088 341.568 233.728C342.123 234.325 342.4 235.115 342.4 236.096C342.4 236.48 341.718 237.077 340.352 237.888C338.987 238.699 337.088 239.573 334.656 240.512C332.267 241.451 329.515 242.283 326.4 243.008C324.352 243.477 322.326 243.84 320.32 244.096C318.315 244.352 316.864 244.48 315.968 244.48C314.219 244.48 313.088 244.16 312.576 243.52C312.107 242.88 311.872 242.069 311.872 241.088C311.872 240.235 312.128 239.36 312.64 238.464C313.195 237.568 313.963 236.928 314.944 236.544C315.968 236.16 317.099 235.797 318.336 235.456C319.574 235.115 320.854 234.816 322.176 234.56C322.262 233.451 322.432 231.979 322.688 230.144C322.944 228.309 323.222 226.304 323.52 224.128C323.862 221.909 324.203 219.669 324.544 217.408C324.928 215.104 325.291 212.949 325.632 210.944C326.016 208.896 326.336 207.125 326.592 205.632C325.355 205.76 324.416 205.824 323.776 205.824ZM391.124 241.536C387.881 241.536 385.001 240.704 382.484 239.04C379.967 237.376 377.983 235.072 376.532 232.128C375.124 229.141 374.42 225.728 374.42 221.888C374.42 219.029 374.996 216.256 376.148 213.568C377.3 210.837 378.58 208.448 379.988 206.4C379.817 205.76 379.732 204.971 379.732 204.032C379.732 202.88 380.201 201.557 381.14 200.064C382.079 198.571 383.38 197.12 385.044 195.712C386.751 194.304 388.735 193.131 390.996 192.192C393.3 191.253 395.796 190.784 398.484 190.784C402.665 190.784 406.185 191.637 409.044 193.344C411.903 195.051 414.057 197.291 415.508 200.064C417.001 202.837 417.748 205.845 417.748 209.088C417.748 213.781 416.98 218.112 415.444 222.08C413.908 226.048 411.86 229.483 409.3 232.384C406.74 235.285 403.881 237.547 400.724 239.168C397.567 240.747 394.367 241.536 391.124 241.536ZM391.892 201.408C391.935 201.536 391.956 201.664 391.956 201.792C391.956 202.219 391.871 202.688 391.7 203.2C391.529 203.669 391.188 204.139 390.676 204.608C389.823 205.461 388.969 206.656 388.116 208.192C387.263 209.685 386.473 211.349 385.748 213.184C385.065 215.019 384.511 216.896 384.084 218.816C383.657 220.736 383.444 222.571 383.444 224.32C383.444 226.709 383.999 228.693 385.108 230.272C386.26 231.851 388.052 232.64 390.484 232.64C392.532 232.64 394.473 232.171 396.308 231.232C398.143 230.251 399.828 228.949 401.364 227.328C402.9 225.664 404.223 223.829 405.332 221.824C406.441 219.776 407.295 217.707 407.892 215.616C408.532 213.483 408.852 211.456 408.852 209.536C408.852 207.744 408.468 206.08 407.7 204.544C406.975 203.008 405.908 201.771 404.5 200.832C403.092 199.851 401.343 199.36 399.252 199.36C397.716 199.36 396.329 199.552 395.092 199.936C393.897 200.32 392.831 200.811 391.892 201.408Z" fill="white"/>
<path d="M44.073 79.4488L42.2946 84.5225L28.5679 79.7111L30.344 74.6441C30.8342 73.2455 31.5311 72.1376 32.4347 71.3204C33.3354 70.4972 34.3959 69.9909 35.6162 69.8015C36.8321 69.6106 38.1528 69.7649 39.5782 70.2645C41.008 70.7657 42.1405 71.4712 42.9755 72.3811C43.8122 73.2864 44.3275 74.3426 44.5216 75.5495C44.7112 76.7549 44.5617 78.0547 44.073 79.4488ZM40.629 80.2134L41.1999 78.5847C41.4693 77.8162 41.5676 77.1206 41.4948 76.498C41.4192 75.8694 41.1342 75.3155 40.6399 74.8362C40.1427 74.3508 39.4004 73.9351 38.4129 73.589C37.4254 73.2428 36.5904 73.1057 35.908 73.1775C35.221 73.2478 34.6532 73.5079 34.2046 73.9577C33.753 74.4015 33.3894 75.0166 33.1137 75.803L32.5593 77.3848L40.629 80.2134Z" fill="white"/>
<path d="M49.7781 66.7131L38.1775 57.9383L44.2959 49.8497L46.573 51.5721L42.5755 56.8569L44.9545 58.6564L48.6392 53.7851L50.9219 55.5118L47.2372 60.3831L49.6219 62.1869L53.6194 56.9021L55.8965 58.6245L49.7781 66.7131Z" fill="white"/>
<path d="M55.3267 39.5353L64.0585 46.4514L64.1578 46.3827L60.7786 35.7687L64.0158 33.5322L68.2458 48.289L64.3951 50.9494L52.0895 41.7718L55.3267 39.5353Z" fill="white"/>
<path d="M78.2681 42.9186L74.1653 28.9638L83.8955 26.1031L84.7009 28.8422L78.3435 30.7113L79.1849 33.5732L85.0448 31.8503L85.8522 34.5963L79.9922 36.3192L80.8356 39.1878L87.193 37.3187L87.9983 40.0579L78.2681 42.9186Z" fill="white"/>
<path d="M95.1908 39L95.1908 24.4545L98.7064 24.4545L98.7064 36.1449L104.758 36.1449V39L95.1908 39Z" fill="white"/>
<path d="M126.839 36.9819C126.35 38.5058 125.643 39.7034 124.717 40.5749C123.791 41.4464 122.739 41.9965 121.561 42.2255C120.389 42.4558 119.182 42.3721 117.942 41.9743C116.698 41.5751 115.667 40.9384 114.848 40.0642C114.03 39.19 113.497 38.1313 113.249 36.8883C113.007 35.6422 113.13 34.2595 113.618 32.7401C114.107 31.2163 114.812 30.0179 115.733 29.145C116.659 28.2735 117.709 27.7226 118.882 27.4922C120.055 27.2619 121.263 27.3463 122.508 27.7455C123.747 28.1433 124.777 28.7771 125.597 29.6468C126.422 30.5179 126.957 31.5773 127.203 32.8248C127.449 34.0723 127.328 35.458 126.839 36.9819ZM123.417 35.884C123.706 34.9823 123.822 34.1792 123.765 33.4746C123.712 32.7714 123.498 32.1831 123.123 31.7097C122.752 31.2377 122.233 30.8946 121.566 30.6806C120.903 30.4679 120.281 30.445 119.701 30.6118C119.12 30.7786 118.602 31.1318 118.145 31.6715C117.693 32.2127 117.322 32.9341 117.033 33.8358C116.744 34.7375 116.625 35.54 116.678 36.2431C116.736 36.9478 116.952 37.5368 117.327 38.0102C117.702 38.4836 118.221 38.8267 118.884 39.0393C119.551 39.2534 120.173 39.2763 120.749 39.1081C121.33 38.9413 121.846 38.5873 122.298 38.0462C122.755 37.5064 123.128 36.7857 123.417 35.884Z" fill="white"/>
<path d="M130.453 47.0699L139.108 35.3792L143.937 38.9542C144.812 39.6022 145.441 40.3326 145.823 41.1456C146.211 41.9576 146.353 42.7962 146.249 43.6615C146.147 44.5229 145.799 45.3551 145.205 46.1581C144.608 46.9649 143.908 47.5398 143.106 47.8829C142.311 48.225 141.465 48.3207 140.57 48.17C139.674 48.0194 138.779 47.613 137.884 46.951L134.905 44.7451L136.553 42.5189L139.007 44.336C139.433 44.6515 139.844 44.8407 140.239 44.9036C140.639 44.9693 141.011 44.9239 141.357 44.7673C141.705 44.607 142.012 44.348 142.276 43.9903C142.544 43.6287 142.701 43.2617 142.747 42.8893C142.796 42.513 142.729 42.1455 142.547 41.7868C142.365 41.4281 142.062 41.0924 141.64 40.7797L140.247 39.7486L133.279 49.1616L130.453 47.0699Z" fill="white"/>
<path d="M144.534 58.822L156.276 50.2379L162.261 58.4255L159.956 60.1105L156.046 54.761L153.638 56.5214L157.242 61.4523L154.932 63.1415L151.327 58.2106L148.913 59.9752L152.824 65.3246L150.519 67.0096L144.534 58.822Z" fill="white"/>
<path d="M154.02 73.3564L167.786 68.6572L169.727 74.3436C170.079 75.3742 170.196 76.3271 170.08 77.2024C169.97 78.0806 169.639 78.8414 169.088 79.4848C168.542 80.1266 167.798 80.6081 166.857 80.9293C165.903 81.2551 165.02 81.3236 164.21 81.1348C163.405 80.9445 162.697 80.5258 162.086 79.8789C161.479 79.2305 160.997 78.382 160.639 77.3334L159.411 73.7375L162.033 72.8426L163.049 75.8202C163.22 76.3221 163.428 76.7188 163.673 77.0106C163.924 77.3052 164.213 77.494 164.542 77.577C164.875 77.6585 165.254 77.6265 165.68 77.4812C166.106 77.3359 166.428 77.1284 166.646 76.8588C166.868 76.5877 166.991 76.2582 167.014 75.8702C167.041 75.4807 166.969 75.0373 166.8 74.5399L166.24 72.8998L155.156 76.6835L154.02 73.3564ZM162.957 78.9585L157.836 84.5341L156.597 80.9045L161.741 75.3962L162.957 78.9585Z" fill="white"/>
<g filter="url(#filter0_d_2_83)">
<path d="M156.096 116.767L157.874 111.693L171.601 116.504L169.825 121.571C169.335 122.97 168.638 124.078 167.734 124.895C166.833 125.718 165.773 126.224 164.553 126.414C163.337 126.605 162.016 126.45 160.591 125.951C159.161 125.45 158.028 124.744 157.193 123.834C156.357 122.929 155.841 121.873 155.647 120.666C155.458 119.46 155.607 118.161 156.096 116.767ZM159.54 116.002L158.969 117.631C158.699 118.399 158.601 119.095 158.674 119.717C158.75 120.346 159.035 120.9 159.529 121.379C160.026 121.865 160.768 122.28 161.756 122.626C162.743 122.973 163.578 123.11 164.261 123.038C164.948 122.968 165.516 122.707 165.964 122.258C166.416 121.814 166.779 121.199 167.055 120.412L167.61 118.831L159.54 116.002Z" fill="black"/>
<path d="M150.391 129.502L161.991 138.277L155.873 146.366L153.596 144.643L157.593 139.358L155.214 137.559L151.53 142.43L149.247 140.704L152.932 135.832L150.547 134.028L146.549 139.313L144.272 137.591L150.391 129.502Z" fill="white"/>
<path d="M144.842 156.68L136.11 149.764L136.011 149.833L139.39 160.447L136.153 162.683L131.923 147.926L135.774 145.266L148.079 154.444L144.842 156.68Z" fill="black"/>
<path d="M121.901 153.297L126.003 167.252L116.273 170.112L115.468 167.373L121.825 165.504L120.984 162.642L115.124 164.365L114.317 161.619L120.177 159.896L119.333 157.028L112.976 158.897L112.17 156.157L121.901 153.297Z" fill="black"/>
<path d="M104.978 157.215L104.978 171.761H101.462L101.462 160.07H95.4112V157.215H104.978Z" fill="white"/>
<path d="M73.3298 159.233C73.8187 157.71 74.5262 156.512 75.4522 155.64C76.3783 154.769 77.43 154.219 78.6073 153.99C79.7802 153.76 80.9865 153.843 82.2263 154.241C83.4707 154.64 84.5021 155.277 85.3205 156.151C86.139 157.025 86.672 158.084 86.9197 159.327C87.1614 160.573 87.0385 161.956 86.551 163.475C86.0621 164.999 85.3569 166.197 84.4354 167.07C83.5093 167.942 82.4599 168.493 81.2871 168.723C80.1142 168.953 78.9056 168.869 77.6613 168.47C76.4214 168.072 75.3916 167.438 74.5717 166.569C73.7472 165.697 73.2119 164.638 72.9658 163.391C72.7196 162.143 72.8409 160.757 73.3298 159.233ZM76.7518 160.331C76.4625 161.233 76.3465 162.036 76.4039 162.741C76.4568 163.444 76.6708 164.032 77.046 164.506C77.4167 164.978 77.9357 165.321 78.6029 165.535C79.2657 165.747 79.8873 165.77 80.4679 165.604C81.0485 165.437 81.5671 165.084 82.0237 164.544C82.4758 164.003 82.8465 163.281 83.1358 162.38C83.4251 161.478 83.5433 160.675 83.4905 159.972C83.4331 159.268 83.2168 158.679 82.8416 158.205C82.4664 157.732 81.9474 157.389 81.2847 157.176C80.6174 156.962 79.9957 156.939 79.4197 157.107C78.8391 157.274 78.3227 157.628 77.8706 158.169C77.414 158.709 77.0411 159.43 76.7518 160.331Z" fill="white"/>
<path d="M69.7157 149.145L61.0613 160.836L56.232 157.261C55.3568 156.613 54.7281 155.883 54.3462 155.07C53.9576 154.258 53.8155 153.419 53.9199 152.554C54.0215 151.692 54.3696 150.86 54.964 150.057C55.5613 149.25 56.2608 148.676 57.0626 148.332C57.8579 147.99 58.7034 147.895 59.5993 148.045C60.4951 148.196 61.3902 148.602 62.2845 149.264L65.2642 151.47L63.6162 153.696L61.1616 151.879C60.7354 151.564 60.3246 151.375 59.9293 151.312C59.5302 151.246 59.1579 151.292 58.8123 151.448C58.4638 151.608 58.1572 151.867 57.8924 152.225C57.6247 152.587 57.4679 152.954 57.422 153.326C57.3732 153.702 57.4399 154.07 57.622 154.429C57.8042 154.787 58.1065 155.123 58.5289 155.436L59.9218 156.467L66.8901 147.054L69.7157 149.145Z" fill="white"/>
<path d="M55.6352 137.393L43.8928 145.977L37.9074 137.79L40.2123 136.105L44.1229 141.454L46.531 139.694L42.9264 134.763L45.237 133.074L48.8417 138.005L51.2555 136.24L47.3449 130.891L49.6498 129.206L55.6352 137.393Z" fill="white"/>
<path d="M46.1484 122.859L32.3829 127.558L30.4418 121.872C30.09 120.841 29.9723 119.888 30.0887 119.013C30.1992 118.135 30.5299 117.374 31.0807 116.731C31.6271 116.089 32.3708 115.607 33.3118 115.286C34.2662 114.96 35.1484 114.892 35.9583 115.081C36.7638 115.271 37.472 115.69 38.0831 116.336C38.6897 116.985 39.172 117.833 39.53 118.882L40.7575 122.478L38.1362 123.373L37.1197 120.395C36.9484 119.893 36.7404 119.497 36.4957 119.205C36.245 118.91 35.9554 118.721 35.6269 118.638C35.2939 118.557 34.9146 118.589 34.4889 118.734C34.0632 118.879 33.7413 119.087 33.5231 119.357C33.3005 119.628 33.1778 119.957 33.1552 120.345C33.128 120.735 33.1993 121.178 33.3691 121.675L33.929 123.316L45.0126 119.532L46.1484 122.859ZM37.2116 117.257L42.3327 111.681L43.5717 115.311L38.4277 120.819L37.2116 117.257Z" fill="white"/>
</g>
</g>
<defs>
<filter id="filter0_d_2_83" x="24.5672" y="111.681" width="151.034" height="68.0795" filterUnits="userSpaceOnUse" color-interpolation-filters="sRGB">
<feFlood flood-opacity="0" result="BackgroundImageFix"/>
<feColorMatrix in="SourceAlpha" type="matrix" values="0 0 0 0 0 0 0 0 0 0 0 0 0 0 0 0 0 0 127 0" result="hardAlpha"/>
<feOffset dy="4"/>
<feGaussianBlur stdDeviation="2"/>
<feComposite in2="hardAlpha" operator="out"/>
<feColorMatrix type="matrix" values="0 0 0 0 0 0 0 0 0 0 0 0 0 0 0 0 0 0 0.25 0"/>
<feBlend mode="normal" in2="BackgroundImageFix" result="effect1_dropShadow_2_83"/>
<feBlend mode="normal" in="SourceGraphic" in2="effect1_dropShadow_2_83" result="shape"/>
</filter>
<clipPath id="clip0_2_83">
<rect width="472" height="311" fill="white"/>
</clipPath>
</defs>
</svg>
