<svg xmlns="http://www.w3.org/2000/svg" fill="none" width="115" height="48">
    <path 
        fill="url(#a)" 
        d="M7.77 36.35C6.4 35.11 6 32.51 6.57 30.62c.99 1.2 2.35 1.57 3.75 1.78 2.18.33 4.31.2 6.33-.78.23-.12.44-.27.7-.42.18.55.23 1.1.17 1.67a4.56 4.56 0 0 1-1.94 3.23c-.43.32-.9.61-1.34.91-1.38.94-1.76 2.03-1.24 3.62l.05.17a3.63 3.63 0 0 1-1.6-1.38 3.87 3.87 0 0 1-.63-2.1c0-.37 0-.74-.05-1.1-.13-.9-.55-1.3-1.33-1.32a1.56 1.56 0 0 0-1.63 1.26c0 .06-.03.12-.05.2Z"
    />
    <path 
    fill="#fff" 
    d="M.02 30.31s4.02-1.95 8.05-1.95l3.04-9.4c.11-.45.44-.76.82-.76.37 0 .7.31.82.76l3.04 9.4c4.77 0 8.05 1.95 8.05 1.95L17 11.71c-.2-.56-.53-.91-.98-.91H7.83c-.44 0-.76.35-.97.9L.02"
    transform="scale(1, -1) translate(0, -40)"
    />
    <defs>
        <linearGradient id="a" x1="6.33" x2="19.43" y1="40.8" y2="34.6" gradientUnits="userSpaceOnUse">
            <stop stop-color="#0000ff"/>
            <stop offset="1" stop-color="#00ff00"/>
        </linearGradient>
    </defs>
</svg>
